<svg xmlns="http://www.w3.org/2000/svg" width="600" height="240" viewBox="0 0 600 240" fill="none">
  <rect width="600" height="240" rx="36" fill="#F8FAFC"/>
  <rect x="28" y="28" width="544" height="184" rx="28" fill="#FFFFFF" stroke="#D7E3F4"/>
  <rect x="64" y="70" width="78" height="78" rx="20" fill="#1E90FF"/>
  <path d="M86 108C86 95.8497 95.8497 86 108 86C120.15 86 130 95.8497 130 108C130 120.15 120.15 130 108 130C95.8497 130 86 120.15 86 108Z" fill="#F8FAFC"/>
  <path d="M97 108C97 101.925 101.925 97 108 97C114.075 97 119 101.925 119 108C119 114.075 114.075 119 108 119C101.925 119 97 114.075 97 108Z" fill="#FFA500"/>
  <text x="170" y="102" fill="#0A2540" font-family="Arial, Helvetica, sans-serif" font-size="28" font-weight="700">Subho&apos;s Computer</text>
  <text x="170" y="141" fill="#52708F" font-family="Arial, Helvetica, sans-serif" font-size="26" font-weight="600">Institute</text>
</svg>
